<?xml version="1.0" encoding="UTF-8" standalone="no"?>
<!-- Created with Inkscape (http://www.inkscape.org/) -->

<svg
   width="540"
   height="600"
   viewBox="0 0 142.875 158.75"
   version="1.1"
   id="svg307762"
   inkscape:version="1.1.1 (3bf5ae0d25, 2021-09-20)"
   sodipodi:docname="logo-600px-hex1a.svg"
   inkscape:export-filename="D:\github-repos\SA-test\static\logo\logo-60px-all-red.png"
   inkscape:export-xdpi="9.6000004"
   inkscape:export-ydpi="9.6000004"
   xmlns:inkscape="http://www.inkscape.org/namespaces/inkscape"
   xmlns:sodipodi="http://sodipodi.sourceforge.net/DTD/sodipodi-0.dtd"
   xmlns="http://www.w3.org/2000/svg"
   xmlns:svg="http://www.w3.org/2000/svg">
  <sodipodi:namedview
     id="namedview307764"
     pagecolor="#f5f5f5"
     bordercolor="#666666"
     borderopacity="1.0"
     inkscape:pageshadow="2"
     inkscape:pageopacity="0"
     inkscape:pagecheckerboard="true"
     inkscape:document-units="px"
     showgrid="false"
     units="px"
     inkscape:zoom="0.5"
     inkscape:cx="490"
     inkscape:cy="289"
     inkscape:window-width="1023"
     inkscape:window-height="583"
     inkscape:window-x="1761"
     inkscape:window-y="541"
     inkscape:window-maximized="0"
     inkscape:current-layer="layer11"
     fit-margin-top="0"
     fit-margin-left="0"
     fit-margin-right="0"
     fit-margin-bottom="0"
     inkscape:snap-nodes="true" />
  <defs
     id="defs307759">
    <inkscape:path-effect
       effect="fillet_chamfer"
       id="path-effect66583"
       is_visible="true"
       lpeversion="1"
       satellites_param="F,0,0,1,0,20,0,1 @ F,0,0,1,0,20,0,1 @ F,0,0,1,0,20,0,1 @ F,0,0,1,0,20,0,1 @ F,0,0,1,0,20,0,1 @ F,0,0,1,0,20,0,1"
       unit="px"
       method="auto"
       mode="F"
       radius="20"
       chamfer_steps="1"
       flexible="false"
       use_knot_distance="true"
       apply_no_radius="true"
       apply_with_radius="true"
       only_selected="false"
       hide_knots="false" />
    <inkscape:path-effect
       effect="fillet_chamfer"
       id="path-effect66564"
       is_visible="true"
       lpeversion="1"
       satellites_param="F,0,0,1,0,20,0,1 @ F,0,0,1,0,20,0,1 @ F,0,0,1,0,20,0,1 @ F,0,0,1,0,20,0,1 @ F,0,0,1,0,20,0,1 @ F,0,0,1,0,20,0,1"
       unit="px"
       method="auto"
       mode="F"
       radius="20"
       chamfer_steps="1"
       flexible="false"
       use_knot_distance="true"
       apply_no_radius="true"
       apply_with_radius="true"
       only_selected="false"
       hide_knots="false" />
    <inkscape:path-effect
       effect="fillet_chamfer"
       id="path-effect66545"
       is_visible="true"
       lpeversion="1"
       satellites_param="F,0,0,1,0,20,0,1 @ F,0,0,1,0,20,0,1 @ F,0,0,1,0,20,0,1 @ F,0,0,1,0,20,0,1 @ F,0,0,1,0,20,0,1 @ F,0,0,1,0,20,0,1"
       unit="px"
       method="auto"
       mode="F"
       radius="20"
       chamfer_steps="1"
       flexible="false"
       use_knot_distance="true"
       apply_no_radius="true"
       apply_with_radius="true"
       only_selected="false"
       hide_knots="false" />
    <inkscape:path-effect
       effect="fillet_chamfer"
       id="path-effect53822"
       is_visible="true"
       lpeversion="1"
       satellites_param="F,0,0,1,0,20,0,1 @ F,0,0,1,0,20,0,1 @ F,0,0,1,0,20,0,1 @ F,0,0,1,0,20,0,1 @ F,0,0,1,0,20,0,1 @ F,0,0,1,0,20,0,1"
       unit="px"
       method="auto"
       mode="F"
       radius="20"
       chamfer_steps="1"
       flexible="false"
       use_knot_distance="true"
       apply_no_radius="true"
       apply_with_radius="true"
       only_selected="false"
       hide_knots="false" />
    <inkscape:path-effect
       effect="fillet_chamfer"
       id="path-effect53733"
       is_visible="false"
       lpeversion="1"
       satellites_param="F,0,0,1,0,20,0,1 @ F,0,0,1,0,20,0,1 @ F,0,0,1,0,20,0,1 @ F,0,0,1,0,20,0,1 @ F,0,0,1,0,20,0,1 @ F,0,0,1,0,20,0,1"
       unit="px"
       method="auto"
       mode="F"
       radius="20"
       chamfer_steps="1"
       flexible="false"
       use_knot_distance="true"
       apply_no_radius="true"
       apply_with_radius="true"
       only_selected="false"
       hide_knots="false" />
    <inkscape:path-effect
       effect="fillet_chamfer"
       id="path-effect19037"
       is_visible="true"
       lpeversion="1"
       satellites_param="F,0,0,1,0,20,0,1 @ F,0,0,1,0,20,0,1 @ F,0,0,1,0,20,0,1 @ F,0,0,1,0,20,0,1 @ F,0,0,1,0,20,0,1 @ F,0,0,1,0,20,0,1"
       unit="px"
       method="auto"
       mode="F"
       radius="20"
       chamfer_steps="1"
       flexible="false"
       use_knot_distance="true"
       apply_no_radius="true"
       apply_with_radius="true"
       only_selected="false"
       hide_knots="false" />
    <inkscape:path-effect
       effect="fillet_chamfer"
       id="path-effect19008"
       is_visible="true"
       lpeversion="1"
       satellites_param="F,0,0,1,0,20,0,1 @ F,0,0,1,0,20,0,1 @ F,0,0,1,0,20,0,1 @ F,0,0,1,0,20,0,1 @ F,0,0,1,0,20,0,1 @ F,0,0,1,0,20,0,1"
       unit="px"
       method="auto"
       mode="F"
       radius="20"
       chamfer_steps="1"
       flexible="false"
       use_knot_distance="true"
       apply_no_radius="true"
       apply_with_radius="true"
       only_selected="false"
       hide_knots="false" />
    <inkscape:path-effect
       effect="fillet_chamfer"
       id="path-effect18710"
       is_visible="true"
       lpeversion="1"
       satellites_param="F,0,0,1,0,20,0,1 @ F,0,0,1,0,20,0,1 @ F,0,0,1,0,20,0,1 @ F,0,0,1,0,20,0,1 @ F,0,0,1,0,20,0,1 @ F,0,0,1,0,20,0,1"
       unit="px"
       method="auto"
       mode="F"
       radius="20"
       chamfer_steps="1"
       flexible="false"
       use_knot_distance="true"
       apply_no_radius="true"
       apply_with_radius="true"
       only_selected="false"
       hide_knots="false" />
    <inkscape:path-effect
       effect="fillet_chamfer"
       id="path-effect18691"
       is_visible="true"
       lpeversion="1"
       satellites_param="F,0,0,1,0,20,0,1 @ F,0,0,1,0,20,0,1 @ F,0,0,1,0,20,0,1 @ F,0,0,1,0,20,0,1 @ F,0,0,1,0,20,0,1 @ F,0,0,1,0,20,0,1"
       unit="px"
       method="auto"
       mode="F"
       radius="20"
       chamfer_steps="1"
       flexible="false"
       use_knot_distance="true"
       apply_no_radius="true"
       apply_with_radius="true"
       only_selected="false"
       hide_knots="false" />
    <inkscape:path-effect
       effect="fillet_chamfer"
       id="path-effect18672"
       is_visible="true"
       lpeversion="1"
       satellites_param="F,0,0,1,0,20,0,1 @ F,0,0,1,0,20,0,1 @ F,0,0,1,0,20,0,1 @ F,0,0,1,0,20,0,1 @ F,0,0,1,0,20,0,1 @ F,0,0,1,0,20,0,1"
       unit="px"
       method="auto"
       mode="F"
       radius="20"
       chamfer_steps="1"
       flexible="false"
       use_knot_distance="true"
       apply_no_radius="true"
       apply_with_radius="true"
       only_selected="false"
       hide_knots="false" />
    <inkscape:path-effect
       effect="fillet_chamfer"
       id="path-effect18117"
       is_visible="true"
       lpeversion="1"
       satellites_param="F,0,0,1,0,20,0,1 @ F,0,0,1,0,20,0,1 @ F,0,0,1,0,20,0,1 @ F,0,0,1,0,20,0,1 @ F,0,0,1,0,20,0,1 @ F,0,0,1,0,20,0,1"
       unit="px"
       method="auto"
       mode="F"
       radius="20"
       chamfer_steps="1"
       flexible="false"
       use_knot_distance="true"
       apply_no_radius="true"
       apply_with_radius="true"
       only_selected="false"
       hide_knots="false" />
    <inkscape:path-effect
       effect="fillet_chamfer"
       id="path-effect18098"
       is_visible="true"
       lpeversion="1"
       satellites_param="F,0,0,1,0,20,0,1 @ F,0,0,1,0,20,0,1 @ F,0,0,1,0,20,0,1 @ F,0,0,1,0,20,0,1 @ F,0,0,1,0,20,0,1 @ F,0,0,1,0,20,0,1"
       unit="px"
       method="auto"
       mode="F"
       radius="20"
       chamfer_steps="1"
       flexible="false"
       use_knot_distance="true"
       apply_no_radius="true"
       apply_with_radius="true"
       only_selected="false"
       hide_knots="false" />
    <inkscape:path-effect
       effect="fillet_chamfer"
       id="path-effect18079"
       is_visible="true"
       lpeversion="1"
       satellites_param="F,0,0,1,0,20,0,1 @ F,0,0,1,0,20,0,1 @ F,0,0,1,0,20,0,1 @ F,0,0,1,0,20,0,1 @ F,0,0,1,0,20,0,1 @ F,0,0,1,0,20,0,1"
       unit="px"
       method="auto"
       mode="F"
       radius="20"
       chamfer_steps="1"
       flexible="false"
       use_knot_distance="true"
       apply_no_radius="true"
       apply_with_radius="true"
       only_selected="false"
       hide_knots="false" />
    <inkscape:path-effect
       effect="fillet_chamfer"
       id="path-effect17955"
       is_visible="true"
       lpeversion="1"
       satellites_param="F,0,0,1,0,20,0,1 @ F,0,0,1,0,20,0,1 @ F,0,0,1,0,20,0,1 @ F,0,0,1,0,20,0,1 @ F,0,0,1,0,20,0,1 @ F,0,0,1,0,20,0,1"
       unit="px"
       method="auto"
       mode="F"
       radius="20"
       chamfer_steps="1"
       flexible="false"
       use_knot_distance="true"
       apply_no_radius="true"
       apply_with_radius="true"
       only_selected="false"
       hide_knots="false" />
    <inkscape:path-effect
       effect="fillet_chamfer"
       id="path-effect17951"
       is_visible="true"
       lpeversion="1"
       satellites_param="F,0,0,1,0,20,0,1 @ F,0,0,1,0,20,0,1 @ F,0,0,1,0,20,0,1 @ F,0,0,1,0,20,0,1 @ F,0,0,1,0,20,0,1 @ F,0,0,1,0,20,0,1"
       unit="px"
       method="auto"
       mode="F"
       radius="20"
       chamfer_steps="1"
       flexible="false"
       use_knot_distance="true"
       apply_no_radius="true"
       apply_with_radius="true"
       only_selected="false"
       hide_knots="false" />
    <inkscape:path-effect
       effect="fillet_chamfer"
       id="path-effect1452"
       is_visible="true"
       lpeversion="1"
       satellites_param="F,0,0,1,0,10,0,1 @ F,0,0,1,0,10,0,1 @ F,0,0,1,0,10,0,1 @ F,0,0,1,0,10,0,1 @ F,0,0,1,0,10,0,1 @ F,0,0,1,0,10,0,1"
       unit="px"
       method="auto"
       mode="F"
       radius="10"
       chamfer_steps="1"
       flexible="false"
       use_knot_distance="true"
       apply_no_radius="true"
       apply_with_radius="true"
       only_selected="false"
       hide_knots="false" />
    <inkscape:path-effect
       effect="fillet_chamfer"
       id="path-effect1278"
       is_visible="true"
       lpeversion="1"
       satellites_param="F,0,0,1,0,10,0,1 @ F,0,0,1,0,10,0,1 @ F,0,0,1,0,10,0,1 @ F,0,0,1,0,10,0,1"
       unit="px"
       method="auto"
       mode="F"
       radius="10"
       chamfer_steps="1"
       flexible="false"
       use_knot_distance="true"
       apply_no_radius="true"
       apply_with_radius="true"
       only_selected="false"
       hide_knots="false" />
    <inkscape:path-effect
       effect="fillet_chamfer"
       id="path-effect1005"
       is_visible="true"
       lpeversion="1"
       satellites_param="F,0,0,1,0,10,0,1 @ F,0,0,1,0,10,0,1 @ F,0,0,1,0,10,0,1 @ F,0,0,1,0,10,0,1 @ F,0,0,1,0,10,0,1 @ F,0,0,1,0,10,0,1"
       unit="px"
       method="auto"
       mode="F"
       radius="10"
       chamfer_steps="1"
       flexible="false"
       use_knot_distance="true"
       apply_no_radius="true"
       apply_with_radius="true"
       only_selected="false"
       hide_knots="false" />
    <inkscape:path-effect
       effect="fillet_chamfer"
       id="path-effect999"
       is_visible="true"
       lpeversion="1"
       satellites_param="F,0,0,1,0,10,0,1 @ F,0,0,1,0,10,0,1 @ F,0,0,1,0,10,0,1 @ F,0,0,1,0,10,0,1 @ F,0,0,1,0,10,0,1 @ F,0,0,1,0,10,0,1"
       unit="px"
       method="auto"
       mode="F"
       radius="10"
       chamfer_steps="1"
       flexible="false"
       use_knot_distance="true"
       apply_no_radius="true"
       apply_with_radius="true"
       only_selected="false"
       hide_knots="false" />
    <inkscape:path-effect
       effect="fillet_chamfer"
       id="path-effect306831"
       is_visible="true"
       lpeversion="1"
       satellites_param="F,0,0,1,0,10,0,1 @ F,0,0,1,0,10,0,1 @ F,0,0,1,0,10,0,1 @ F,0,0,1,0,10,0,1 @ F,0,0,1,0,10,0,1 @ F,0,0,1,0,10,0,1"
       unit="mm"
       method="auto"
       mode="F"
       radius="10"
       chamfer_steps="1"
       flexible="false"
       use_knot_distance="true"
       apply_no_radius="true"
       apply_with_radius="true"
       only_selected="false"
       hide_knots="false" />
    <inkscape:path-effect
       effect="fillet_chamfer"
       id="path-effect1343"
       is_visible="true"
       lpeversion="1"
       satellites_param="F,0,0,1,0,10,0,1 @ F,0,0,1,0,10,0,1 @ F,0,0,1,0,10,0,1 @ F,0,0,1,0,10,0,1 @ F,0,0,1,0,10,0,1 @ F,0,0,1,0,10,0,1"
       unit="mm"
       method="auto"
       mode="F"
       radius="10"
       chamfer_steps="1"
       flexible="false"
       use_knot_distance="true"
       apply_no_radius="true"
       apply_with_radius="true"
       only_selected="false"
       hide_knots="false" />
    <inkscape:path-effect
       effect="fillet_chamfer"
       id="path-effect1339"
       is_visible="true"
       lpeversion="1"
       satellites_param="F,0,0,1,0,10,0,1 @ F,0,0,1,0,10,0,1 @ F,0,0,1,0,10,0,1 @ F,0,0,1,0,10,0,1 @ F,0,0,1,0,10,0,1 @ F,0,0,1,0,10,0,1"
       unit="mm"
       method="auto"
       mode="F"
       radius="10"
       chamfer_steps="1"
       flexible="false"
       use_knot_distance="true"
       apply_no_radius="true"
       apply_with_radius="true"
       only_selected="false"
       hide_knots="false" />
  </defs>
  <g
     inkscape:groupmode="layer"
     id="layer10"
     inkscape:label="hex-mov"
     style="display:inline">
    <g
       inkscape:groupmode="layer"
       id="layer11"
       inkscape:label="hex-mov1"
       style="display:inline">
      <g
         id="g74280"
         style="display:inline"
         transform="matrix(1,0,0,-1,0,158.75)">
        <path
           id="path74274"
           style="display:inline;fill:#97caef;fill-opacity:1;stroke:none;stroke-width:0.999999px;stroke-linecap:butt;stroke-linejoin:miter;stroke-opacity:1"
           d="m 269.99805,10 c -10.82013,3.44e-4 -21.6399,2.79548 -31.3418,8.386719 L 41.345703,132.0957 C 21.940697,143.27886 10,163.92467 10,186.29102 V 413.71094 C 10,424.89411 12.983648,435.6451 18.394531,445 L 66.335938,417.37891 A 54.489328,54.449004 0 0 1 59.341797,390.77344 V 210.57031 A 54.489328,54.449004 0 0 1 86.585938,163.41602 L 242.76172,73.314453 a 54.489328,54.449004 0 0 1 27.22656,-7.292969 z"
           transform="scale(0.26458333)" />
        <path
           id="path74276"
           style="display:inline;fill:#cafefe;fill-opacity:1;stroke:none;stroke-width:0.999999px;stroke-linecap:butt;stroke-linejoin:miter;stroke-opacity:1"
           d="M 66.335938,417.37891 18.394531,445 c 5.410883,9.3549 13.248668,17.31271 22.951172,22.9043 l 98.656247,56.85547 98.6543,56.85351 c 9.70249,5.59159 20.52436,8.38672 31.3457,8.38672 10.82132,0 21.63931,-2.79513 31.3418,-8.38672 l 98.6543,-56.85351 98.65625,-56.85547 c 9.70117,-5.59079 17.53841,-13.5472 22.94922,-22.90039 l -47.90235,-27.58985 a 54.489328,54.449004 0 0 1 -20.27539,20.51367 L 297.25,528.02734 a 54.489328,54.449004 0 0 1 -54.48828,0 L 86.585938,437.92773 a 54.489328,54.449004 0 0 1 -20.25,-20.54882 z"
           transform="scale(0.26458333)" />
        <path
           id="path74278"
           style="display:inline;fill:#44ede4;fill-opacity:1;stroke:none;stroke-width:0.999999px;stroke-linecap:butt;stroke-linejoin:miter;stroke-opacity:1"
           d="m 269.99805,10 -0.01,56.021484 A 54.489328,54.449004 0 0 1 297.25,73.314453 l 156.17578,90.101567 a 54.489328,54.449004 0 0 1 27.24414,47.15429 v 180.20313 a 54.489328,54.449004 0 0 1 -6.97265,26.64062 l 47.90625,27.58985 C 527.01584,435.6481 530,424.89566 530,413.71094 V 186.29102 c -4e-5,-22.36635 -11.9407,-43.01216 -31.3457,-54.19532 L 399.99805,75.240234 301.34375,18.386719 C 291.64065,12.794792 280.81951,9.9996568 269.99805,10 Z"
           transform="scale(0.26458333)" />
      </g>
    </g>
    <g
       inkscape:groupmode="layer"
       id="layer12"
       inkscape:label="hex-mov2"
       style="display:none">
      <path
         id="path74294"
         style="display:inline;fill:#97caef;fill-opacity:1;stroke:none;stroke-width:0.264583px;stroke-linecap:butt;stroke-linejoin:miter;stroke-opacity:1"
         d="m 71.436983,2.6458333 c -2.862826,9.1e-5 -5.725557,0.7396374 -8.292518,2.218986 L 10.939384,34.95032 C 5.8051427,37.909198 2.6458333,43.371735 2.6458333,49.289498 v 60.171522 c 0,2.95888 0.7894235,5.80341 2.221053,8.27856 L 17.551383,110.4315 A 14.416968,14.406299 0 0 1 15.70085,103.39214 V 55.713394 A 14.416968,14.406299 0 0 1 22.909196,43.237155 L 64.230704,19.397782 a 14.416968,14.406299 0 0 1 7.203694,-1.929598 z" />
      <path
         id="path74296"
         style="display:inline;fill:#44ede4;fill-opacity:1;stroke:none;stroke-width:0.264583px;stroke-linecap:butt;stroke-linejoin:miter;stroke-opacity:1"
         d="m 17.551383,110.4315 -12.6844967,7.30808 c 1.4316294,2.47515 3.5053767,4.58066 6.0724977,6.0601 l 26.102798,15.04301 26.102283,15.04249 c 2.567117,1.47944 5.430404,2.21898 8.29355,2.21898 2.863141,0 5.725401,-0.73954 8.292518,-2.21898 l 26.102287,-15.04249 26.1028,-15.04301 c 2.56676,-1.47923 4.64037,-3.58437 6.07198,-6.05906 l -12.67417,-7.29982 a 14.416968,14.406299 0 0 1 -5.36453,5.42758 l -41.321505,23.83885 a 14.416968,14.406299 0 0 1 -14.416691,0 L 22.909196,115.86838 a 14.416968,14.406299 0 0 1 -5.357813,-5.43688 z" />
      <path
         id="path74298"
         style="display:inline;fill:#cafefe;fill-opacity:1;stroke:none;stroke-width:0.264583px;stroke-linecap:butt;stroke-linejoin:miter;stroke-opacity:1"
         d="m 71.436983,2.6458333 -0.0026,14.8223507 a 14.416968,14.406299 0 0 1 7.213058,1.929598 L 119.9689,43.237155 a 14.416968,14.406299 0 0 1 7.20835,12.476239 v 47.678746 a 14.416968,14.406299 0 0 1 -1.84485,7.04866 l 12.6752,7.29982 c 1.43201,-2.47539 2.22156,-5.32031 2.22156,-8.2796 V 49.289498 c -1e-5,-5.917763 -3.15931,-11.3803 -8.29354,-14.339178 L 105.83282,19.907312 79.730533,4.8648193 C 77.163254,3.3852887 74.300161,2.6457425 71.436983,2.6458333 Z" />
    </g>
    <g
       inkscape:groupmode="layer"
       id="layer13"
       inkscape:label="hex-mov3"
       style="display:none">
      <path
         id="path74302"
         style="display:inline;fill:#44ede4;fill-opacity:1;stroke:none;stroke-width:0.264583px;stroke-linecap:butt;stroke-linejoin:miter;stroke-opacity:1"
         d="m 71.436983,2.6458333 c -2.862826,9.1e-5 -5.725557,0.7396374 -8.292518,2.218986 L 10.939384,34.95032 C 5.8051427,37.909198 2.6458333,43.371735 2.6458333,49.289498 v 60.171522 c 0,2.95888 0.7894235,5.80341 2.221053,8.27856 L 17.551383,110.4315 A 14.416968,14.406299 0 0 1 15.70085,103.39214 V 55.713394 A 14.416968,14.406299 0 0 1 22.909196,43.237155 L 64.230704,19.397782 a 14.416968,14.406299 0 0 1 7.203694,-1.929598 z" />
      <path
         id="path74304"
         style="display:inline;fill:#cafefe;fill-opacity:1;stroke:none;stroke-width:0.264583px;stroke-linecap:butt;stroke-linejoin:miter;stroke-opacity:1"
         d="m 17.551383,110.4315 -12.6844967,7.30808 c 1.4316294,2.47515 3.5053767,4.58066 6.0724977,6.0601 l 26.102798,15.04301 26.102283,15.04249 c 2.567117,1.47944 5.430404,2.21898 8.29355,2.21898 2.863141,0 5.725401,-0.73954 8.292518,-2.21898 l 26.102287,-15.04249 26.1028,-15.04301 c 2.56676,-1.47923 4.64037,-3.58437 6.07198,-6.05906 l -12.67417,-7.29982 a 14.416968,14.406299 0 0 1 -5.36453,5.42758 l -41.321505,23.83885 a 14.416968,14.406299 0 0 1 -14.416691,0 L 22.909196,115.86838 a 14.416968,14.406299 0 0 1 -5.357813,-5.43688 z" />
      <path
         id="path74306"
         style="display:inline;fill:#97caef;fill-opacity:1;stroke:none;stroke-width:0.264583px;stroke-linecap:butt;stroke-linejoin:miter;stroke-opacity:1"
         d="m 71.436983,2.6458333 -0.0026,14.8223507 a 14.416968,14.406299 0 0 1 7.213058,1.929598 L 119.9689,43.237155 a 14.416968,14.406299 0 0 1 7.20835,12.476239 v 47.678746 a 14.416968,14.406299 0 0 1 -1.84485,7.04866 l 12.6752,7.29982 c 1.43201,-2.47539 2.22156,-5.32031 2.22156,-8.2796 V 49.289498 c -1e-5,-5.917763 -3.15931,-11.3803 -8.29354,-14.339178 L 105.83282,19.907312 79.730533,4.8648193 C 77.163254,3.3852887 74.300161,2.6457425 71.436983,2.6458333 Z" />
    </g>
  </g>
</svg>
