<?xml version="1.0" standalone="no"?>
<!DOCTYPE svg PUBLIC "-//W3C//DTD SVG 20010904//EN"
 "http://www.w3.org/TR/2001/REC-SVG-20010904/DTD/svg10.dtd">
<svg version="1.0" xmlns="http://www.w3.org/2000/svg"
 width="700.000000pt" height="700.000000pt" viewBox="0 0 700.000000 700.000000"
 preserveAspectRatio="xMidYMid meet">
<metadata>
Created by potrace 1.14, written by Peter Selinger 2001-2017
</metadata>
<g transform="translate(0.000000,700.000000) scale(0.100000,-0.100000)"
fill="#000000" stroke="none">
<path d="M3345 6944 c-221 -30 -375 -78 -565 -175 -292 -151 -513 -363 -671
-644 l-34 -60 -75 -1 c-104 -1 -252 -13 -308 -24 -48 -10 -85 -17 -135 -26
-15 -3 -63 -16 -105 -28 -648 -195 -1123 -690 -1262 -1315 -46 -209 -48 -453
-4 -676 38 -192 128 -408 244 -585 84 -127 125 -176 244 -295 314 -311 710
-502 1182 -569 95 -14 391 -14 489 -1 22 3 60 7 85 11 74 9 206 45 238 64 45
28 64 63 64 119 0 57 -28 103 -76 123 -42 17 -73 18 -127 2 -146 -43 -450 -63
-627 -41 -526 65 -984 345 -1255 764 -15 24 -27 46 -27 49 0 4 -6 15 -14 23
-26 30 -117 256 -130 322 -2 13 -9 47 -16 74 -30 131 -33 347 -6 504 33 196
131 424 251 587 94 127 260 286 379 362 301 193 588 276 953 274 216 -1 213
-3 292 153 49 98 99 179 131 218 6 6 18 21 28 33 197 239 518 423 817 469 22
3 56 9 75 12 72 11 285 9 374 -3 520 -72 952 -422 1099 -890 55 -177 66 -367
30 -555 -23 -123 -21 -169 7 -209 32 -44 59 -52 190 -56 398 -10 742 -139
1035 -386 93 -79 109 -95 186 -188 144 -173 264 -420 295 -610 3 -19 7 -37 9
-41 7 -11 19 -156 19 -229 0 -220 -56 -452 -152 -635 -33 -63 -121 -198 -164
-250 -89 -110 -273 -271 -393 -342 -163 -98 -397 -186 -551 -208 -21 -3 -45
-8 -52 -10 -28 -10 -174 -19 -297 -19 -323 0 -490 34 -757 154 -120 54 -129
57 -179 47 -94 -19 -137 -143 -76 -219 30 -36 229 -130 382 -179 271 -88 699
-110 1015 -54 767 138 1357 711 1481 1438 62 361 -1 735 -180 1063 -246 453
-695 784 -1226 903 -49 11 -115 22 -145 26 -30 3 -68 8 -85 10 -16 2 -40 4
-52 4 -18 1 -21 6 -17 28 9 49 11 239 3 315 -29 267 -128 520 -288 733 -257
342 -621 558 -1066 632 -115 19 -364 23 -480 7z"/>
<path d="M3288 5515 c-335 -93 -401 -545 -108 -731 25 -15 47 -29 49 -31 4 -2
8 -1273 4 -1273 -2 0 -26 24 -55 53 -80 80 -244 191 -435 293 -56 31 -189 107
-421 240 -26 16 -31 24 -27 44 27 127 -16 269 -111 367 -222 227 -617 116
-687 -192 -58 -260 138 -502 404 -497 69 1 141 21 195 52 l31 17 104 -62 c57
-34 199 -115 314 -179 421 -236 496 -302 531 -469 11 -56 12 -270 0 -387 -3
-30 -8 -77 -11 -105 -2 -27 -7 -84 -10 -125 -3 -41 -8 -88 -10 -105 -2 -16 -7
-66 -10 -110 -4 -43 -8 -86 -10 -95 -2 -9 -6 -54 -10 -101 -4 -46 -9 -91 -10
-101 -2 -9 -7 -49 -10 -89 -4 -40 -8 -80 -10 -88 -2 -9 -6 -45 -9 -81 -4 -36
-9 -81 -11 -100 -10 -74 -15 -117 -20 -160 -3 -25 -8 -63 -10 -85 -9 -62 -14
-106 -20 -155 -3 -25 -12 -94 -20 -155 -8 -60 -17 -132 -21 -160 -3 -27 -8
-57 -9 -66 -2 -9 -6 -40 -10 -70 -3 -30 -8 -65 -10 -79 -2 -14 -6 -43 -9 -65
-3 -22 -12 -87 -21 -145 -8 -58 -17 -121 -19 -140 -3 -19 -12 -85 -20 -147 -9
-62 -13 -119 -10 -127 9 -24 95 -52 219 -70 89 -13 223 -20 415 -20 319 0 523
17 541 45 15 23 10 71 -16 170 -38 140 -54 225 -70 374 -3 28 -7 66 -10 85
-11 88 -22 207 -30 305 -3 44 -8 98 -10 120 -2 22 -7 76 -10 120 -3 44 -8 100
-10 125 -2 25 -7 90 -11 145 -3 55 -7 120 -9 145 -2 25 -6 88 -10 140 -3 52
-8 122 -10 155 -2 33 -7 110 -10 170 -6 107 -10 192 -20 345 -13 215 -19 358
-19 475 -1 203 28 246 171 261 58 6 140 6 580 5 l231 -1 30 -53 c133 -236 472
-271 655 -68 75 84 107 173 104 290 -4 145 -95 280 -233 347 -199 96 -443 10
-542 -190 l-24 -47 -386 1 c-448 0 -410 1 -487 -12 -76 -12 -156 -40 -194 -67
-16 -12 -32 -21 -35 -21 -3 0 -6 308 -6 684 l0 683 61 38 c153 94 225 295 167
465 -44 129 -133 218 -265 263 -53 18 -175 19 -235 2z m234 -154 c162 -82 196
-290 69 -420 -139 -143 -381 -87 -445 102 -20 61 -20 102 1 167 21 65 93 141
155 164 62 22 161 16 220 -13z m-1546 -917 c93 -29 153 -95 179 -194 32 -128
-46 -266 -175 -309 -177 -57 -354 70 -353 254 2 180 176 304 349 249z m3199
-853 c88 -39 152 -141 152 -241 0 -238 -293 -355 -460 -183 -74 77 -94 198
-49 293 25 54 36 67 85 105 73 55 183 65 272 26z"/>
</g>
</svg>
