<?xml version="1.0" standalone="no"?>
<!DOCTYPE svg PUBLIC "-//W3C//DTD SVG 20010904//EN"
 "http://www.w3.org/TR/2001/REC-SVG-20010904/DTD/svg10.dtd">
<svg version="1.0" xmlns="http://www.w3.org/2000/svg"
 width="515.000000pt" height="515.000000pt" viewBox="0 0 515.000000 515.000000"
 preserveAspectRatio="xMidYMid meet">
<metadata>
Created by potrace 1.14, written by Peter Selinger 2001-2017
</metadata>
<g transform="translate(0.000000,515.000000) scale(0.100000,-0.100000)"
fill="#000000" stroke="none">
<path d="M2385 5134 c-44 -8 -121 -27 -171 -43 -314 -101 -549 -294 -709 -585
-9 -16 -26 -19 -115 -21 -58 -2 -121 -6 -140 -10 -19 -3 -61 -10 -92 -16 -31
-5 -105 -25 -165 -44 -348 -111 -639 -358 -797 -677 -44 -90 -91 -225 -102
-298 -3 -19 -10 -55 -14 -80 -9 -47 -6 -297 5 -362 22 -146 104 -345 199 -488
254 -381 717 -627 1194 -634 223 -3 418 28 469 76 68 64 8 182 -84 165 -16 -3
-64 -12 -108 -22 -45 -9 -138 -17 -212 -19 -203 -4 -382 31 -553 107 -25 11
-47 21 -50 22 -18 4 -106 55 -165 95 -262 178 -435 434 -490 725 -3 17 -8 71
-11 122 -14 211 50 440 173 625 60 90 208 242 288 295 154 103 329 175 480
199 22 3 58 9 80 13 22 4 94 6 160 5 66 -1 132 2 147 8 18 7 36 29 60 76 84
169 167 272 301 373 116 87 237 143 402 185 86 22 338 25 430 5 288 -61 535
-230 671 -458 63 -105 99 -205 121 -331 11 -65 5 -226 -11 -296 -17 -72 -16
-101 5 -134 20 -32 52 -40 179 -46 446 -21 832 -269 1010 -649 70 -150 95
-264 95 -437 0 -128 -9 -191 -42 -294 -108 -341 -371 -603 -728 -724 -49 -17
-103 -33 -120 -36 -16 -3 -57 -10 -90 -16 -63 -12 -341 -15 -410 -5 -144 21
-236 48 -363 107 -117 53 -165 48 -197 -19 -20 -41 -13 -82 19 -112 23 -22
157 -83 261 -119 197 -68 527 -86 780 -41 85 16 282 82 365 124 459 231 739
678 726 1160 -4 139 -8 178 -26 247 -100 389 -338 686 -695 866 -164 84 -367
140 -546 151 -13 1 -14 10 -9 51 16 122 -7 309 -54 448 -64 187 -199 377 -361
510 -135 110 -386 226 -535 248 -19 3 -42 7 -50 11 -34 12 -327 10 -405 -3z"/>
<path d="M2445 4092 c-96 -16 -183 -69 -225 -137 -49 -80 -58 -196 -21 -279
20 -47 96 -136 115 -136 6 0 20 -7 31 -16 19 -14 20 -28 20 -504 0 -270 -2
-490 -5 -490 -3 0 -15 16 -28 34 -68 100 -211 204 -575 422 l-99 59 -2 70 c-4
116 -68 211 -177 260 -112 50 -246 25 -333 -63 -150 -149 -102 -398 93 -485
86 -39 227 -24 293 31 14 12 25 9 85 -26 37 -22 91 -52 118 -67 206 -115 377
-243 449 -337 37 -50 65 -144 61 -208 -8 -151 -16 -258 -20 -290 -3 -19 -7
-64 -10 -100 -5 -66 -7 -81 -25 -255 -6 -55 -13 -122 -16 -150 -7 -70 -14
-134 -19 -175 -3 -19 -7 -57 -10 -85 -3 -27 -8 -61 -10 -75 -2 -14 -6 -45 -9
-70 -3 -25 -8 -64 -11 -87 -3 -24 -7 -61 -10 -84 -3 -23 -7 -53 -9 -68 -3 -14
-7 -48 -10 -76 -6 -45 -10 -78 -21 -155 -2 -14 -9 -63 -15 -110 -6 -47 -13
-96 -15 -110 -2 -14 -6 -45 -9 -70 -3 -25 -8 -54 -10 -66 -2 -11 -7 -46 -10
-76 -6 -54 -5 -56 21 -66 104 -39 179 -47 463 -47 213 0 339 7 374 21 21 8 21
64 1 130 -17 56 -42 185 -50 259 -3 28 -8 61 -10 75 -2 14 -7 59 -10 100 -3
41 -7 91 -10 110 -4 43 -14 156 -20 230 -19 259 -32 454 -40 590 -2 47 -7 126
-10 175 -27 478 -28 540 -11 573 43 84 156 107 511 105 105 -1 195 -2 200 -2
6 -1 16 -14 23 -30 38 -85 154 -160 253 -162 99 -2 166 25 231 93 58 61 81
119 82 202 1 277 -342 407 -524 199 -17 -19 -38 -50 -47 -67 l-15 -32 -206 0
c-361 0 -500 -24 -597 -107 l-30 -25 0 533 c0 294 2 535 5 537 3 3 22 14 42
27 90 54 142 148 141 256 -1 81 -19 131 -71 194 -55 67 -178 117 -257 103z"/>
</g>
</svg>
