<?xml version="1.0" encoding="UTF-8" standalone="no"?>
<!-- Created with Inkscape (http://www.inkscape.org/) -->

<svg
   width="1600"
   height="600"
   viewBox="0 0 423.33333 158.75"
   version="1.1"
   id="svg307762"
   inkscape:version="1.1.1 (3bf5ae0d25, 2021-09-20)"
   sodipodi:docname="logo-600px-name.svg"
   xmlns:inkscape="http://www.inkscape.org/namespaces/inkscape"
   xmlns:sodipodi="http://sodipodi.sourceforge.net/DTD/sodipodi-0.dtd"
   xmlns="http://www.w3.org/2000/svg"
   xmlns:svg="http://www.w3.org/2000/svg">
  <sodipodi:namedview
     id="namedview307764"
     pagecolor="#ffffff"
     bordercolor="#666666"
     borderopacity="1.0"
     inkscape:pageshadow="2"
     inkscape:pageopacity="0"
     inkscape:pagecheckerboard="true"
     inkscape:document-units="px"
     showgrid="false"
     units="px"
     inkscape:zoom="0.5303995"
     inkscape:cx="760.74733"
     inkscape:cy="61.274568"
     inkscape:window-width="1920"
     inkscape:window-height="1027"
     inkscape:window-x="1072"
     inkscape:window-y="409"
     inkscape:window-maximized="1"
     inkscape:current-layer="layer5"
     fit-margin-top="0"
     fit-margin-left="0"
     fit-margin-right="0"
     fit-margin-bottom="0"
     width="2000px" />
  <defs
     id="defs307759">
    <inkscape:path-effect
       effect="fillet_chamfer"
       id="path-effect56465"
       is_visible="true"
       lpeversion="1"
       satellites_param="F,0,0,1,0,10,0,1 @ F,0,0,1,0,10,0,1 @ F,0,0,1,0,10,0,1 @ F,0,0,1,0,10,0,1 @ F,0,0,1,0,10,0,1 @ F,0,0,1,0,10,0,1"
       unit="px"
       method="auto"
       mode="F"
       radius="10"
       chamfer_steps="1"
       flexible="false"
       use_knot_distance="true"
       apply_no_radius="true"
       apply_with_radius="true"
       only_selected="false"
       hide_knots="false" />
    <inkscape:path-effect
       effect="fillet_chamfer"
       id="path-effect56446"
       is_visible="true"
       lpeversion="1"
       satellites_param="F,0,0,1,0,10,0,1 @ F,0,0,1,0,10,0,1 @ F,0,0,1,0,10,0,1 @ F,0,0,1,0,10,0,1 @ F,0,0,1,0,10,0,1 @ F,0,0,1,0,10,0,1"
       unit="px"
       method="auto"
       mode="F"
       radius="10"
       chamfer_steps="1"
       flexible="false"
       use_knot_distance="true"
       apply_no_radius="true"
       apply_with_radius="true"
       only_selected="false"
       hide_knots="false" />
    <inkscape:path-effect
       effect="fillet_chamfer"
       id="path-effect56427"
       is_visible="true"
       lpeversion="1"
       satellites_param="F,0,0,1,0,10,0,1 @ F,0,0,1,0,10,0,1 @ F,0,0,1,0,10,0,1 @ F,0,0,1,0,10,0,1 @ F,0,0,1,0,10,0,1 @ F,0,0,1,0,10,0,1"
       unit="px"
       method="auto"
       mode="F"
       radius="10"
       chamfer_steps="1"
       flexible="false"
       use_knot_distance="true"
       apply_no_radius="true"
       apply_with_radius="true"
       only_selected="false"
       hide_knots="false" />
    <inkscape:path-effect
       effect="fillet_chamfer"
       id="path-effect55867"
       is_visible="true"
       lpeversion="1"
       satellites_param="F,0,0,1,0,10,0,1 @ F,0,0,1,0,10,0,1 @ F,0,0,1,0,10,0,1 @ F,0,0,1,0,10,0,1 @ F,0,0,1,0,10,0,1 @ F,0,0,1,0,10,0,1"
       unit="px"
       method="auto"
       mode="F"
       radius="10"
       chamfer_steps="1"
       flexible="false"
       use_knot_distance="true"
       apply_no_radius="true"
       apply_with_radius="true"
       only_selected="false"
       hide_knots="false" />
    <inkscape:path-effect
       effect="fillet_chamfer"
       id="path-effect46928"
       is_visible="true"
       lpeversion="1"
       satellites_param="F,0,0,1,0,10,0,1 @ F,0,0,1,0,10,0,1 @ F,0,0,1,0,10,0,1 @ F,0,0,1,0,10,0,1"
       unit="px"
       method="auto"
       mode="F"
       radius="10"
       chamfer_steps="1"
       flexible="false"
       use_knot_distance="true"
       apply_no_radius="true"
       apply_with_radius="true"
       only_selected="false"
       hide_knots="false" />
    <inkscape:path-effect
       effect="fillet_chamfer"
       id="path-effect1005"
       is_visible="true"
       lpeversion="1"
       satellites_param="F,0,0,1,0,10,0,1 @ F,0,0,1,0,10,0,1 @ F,0,0,1,0,10,0,1 @ F,0,0,1,0,10,0,1 @ F,0,0,1,0,10,0,1 @ F,0,0,1,0,10,0,1"
       unit="px"
       method="auto"
       mode="F"
       radius="10"
       chamfer_steps="1"
       flexible="false"
       use_knot_distance="true"
       apply_no_radius="true"
       apply_with_radius="true"
       only_selected="false"
       hide_knots="false" />
    <inkscape:path-effect
       effect="fillet_chamfer"
       id="path-effect999"
       is_visible="true"
       lpeversion="1"
       satellites_param="F,0,0,1,0,10,0,1 @ F,0,0,1,0,10,0,1 @ F,0,0,1,0,10,0,1 @ F,0,0,1,0,10,0,1 @ F,0,0,1,0,10,0,1 @ F,0,0,1,0,10,0,1"
       unit="px"
       method="auto"
       mode="F"
       radius="10"
       chamfer_steps="1"
       flexible="false"
       use_knot_distance="true"
       apply_no_radius="true"
       apply_with_radius="true"
       only_selected="false"
       hide_knots="false" />
    <inkscape:path-effect
       effect="fillet_chamfer"
       id="path-effect306831"
       is_visible="true"
       lpeversion="1"
       satellites_param="F,0,0,1,0,10,0,1 @ F,0,0,1,0,10,0,1 @ F,0,0,1,0,10,0,1 @ F,0,0,1,0,10,0,1 @ F,0,0,1,0,10,0,1 @ F,0,0,1,0,10,0,1"
       unit="mm"
       method="auto"
       mode="F"
       radius="10"
       chamfer_steps="1"
       flexible="false"
       use_knot_distance="true"
       apply_no_radius="true"
       apply_with_radius="true"
       only_selected="false"
       hide_knots="false" />
    <inkscape:path-effect
       effect="fillet_chamfer"
       id="path-effect1343"
       is_visible="true"
       lpeversion="1"
       satellites_param="F,0,0,1,0,10,0,1 @ F,0,0,1,0,10,0,1 @ F,0,0,1,0,10,0,1 @ F,0,0,1,0,10,0,1 @ F,0,0,1,0,10,0,1 @ F,0,0,1,0,10,0,1"
       unit="mm"
       method="auto"
       mode="F"
       radius="10"
       chamfer_steps="1"
       flexible="false"
       use_knot_distance="true"
       apply_no_radius="true"
       apply_with_radius="true"
       only_selected="false"
       hide_knots="false" />
    <inkscape:path-effect
       effect="fillet_chamfer"
       id="path-effect1339"
       is_visible="true"
       lpeversion="1"
       satellites_param="F,0,0,1,0,10,0,1 @ F,0,0,1,0,10,0,1 @ F,0,0,1,0,10,0,1 @ F,0,0,1,0,10,0,1 @ F,0,0,1,0,10,0,1 @ F,0,0,1,0,10,0,1"
       unit="mm"
       method="auto"
       mode="F"
       radius="10"
       chamfer_steps="1"
       flexible="false"
       use_knot_distance="true"
       apply_no_radius="true"
       apply_with_radius="true"
       only_selected="false"
       hide_knots="false" />
    <inkscape:path-effect
       effect="fillet_chamfer"
       id="path-effect869"
       is_visible="true"
       lpeversion="1"
       satellites_param="F,0,0,1,0,10,0,1 @ F,0,0,1,0,10,0,1 @ F,0,0,1,0,10,0,1 @ F,0,0,1,0,10,0,1 @ F,0,0,1,0,10,0,1 @ F,0,0,1,0,10,0,1"
       unit="px"
       method="auto"
       mode="F"
       radius="10"
       chamfer_steps="1"
       flexible="false"
       use_knot_distance="true"
       apply_no_radius="true"
       apply_with_radius="true"
       only_selected="false"
       hide_knots="false" />
    <inkscape:path-effect
       effect="fillet_chamfer"
       id="path-effect994"
       is_visible="true"
       lpeversion="1"
       satellites_param="F,0,0,1,0,10,0,1 @ F,0,0,1,0,10,0,1 @ F,0,0,1,0,10,0,1 @ F,0,0,1,0,10,0,1 @ F,0,0,1,0,10,0,1 @ F,0,0,1,0,10,0,1"
       unit="px"
       method="auto"
       mode="F"
       radius="10"
       chamfer_steps="1"
       flexible="false"
       use_knot_distance="true"
       apply_no_radius="true"
       apply_with_radius="true"
       only_selected="false"
       hide_knots="false" />
  </defs>
  <g
     inkscape:groupmode="layer"
     id="layer2"
     inkscape:label="bg"
     style="display:none">
    <path
       style="fill:#f5f5f5;fill-opacity:1;stroke:none;stroke-width:3.13128;stroke-linecap:round;stroke-linejoin:round;stroke-miterlimit:10;paint-order:markers fill stroke"
       id="rect46648"
       width="423.33334"
       height="158.75"
       x="0"
       y="7.1054274e-15"
       inkscape:path-effect="#path-effect46928"
       sodipodi:type="rect"
       d="m 10,0 h 403.33334 a 10,10 45 0 1 10,10 v 138.75 a 10,10 135 0 1 -10,10 L 10,158.75 a 10,10 45 0 1 -10,-10 V 10 A 10,10 135 0 1 10,0 Z" />
  </g>
  <g
     inkscape:label="logo-color"
     inkscape:groupmode="layer"
     id="layer1"
     transform="translate(-8.9958381)"
     style="display:inline">
    <g
       id="g56557">
      <path
         id="path989"
         style="display:inline;fill:#cafefe;fill-opacity:1;stroke:none;stroke-width:0.999999px;stroke-linecap:butt;stroke-linejoin:miter;stroke-opacity:1"
         d="m 266,12.4375 c -4.55395,0.103963 -9.08831,1.318472 -13.17578,3.671875 L 26.453125,146.44141 c -8.552753,4.92434 -13.808594,14.0029 -13.808594,23.85156 v 260.66992 c 0,4.68486 1.201345,9.18807 3.369141,13.16016 L 59.09375,419.32617 A 27.244663,27.224501 0 0 1 55.140625,406.01758 V 194.37891 A 27.244663,27.224501 0 0 1 68.763672,170.80273 L 252.18359,64.982422 A 27.244663,27.224501 0 0 1 265.99219,61.75 Z"
         transform="matrix(0.26458333,0,0,0.26458333,8.9958381,0)" />
      <path
         id="path991"
         style="display:inline;fill:#97caef;fill-opacity:1;stroke:none;stroke-width:1px;stroke-linecap:butt;stroke-linejoin:miter;stroke-opacity:1"
         d="m 59.09375,419.32422 -43.060547,24.78711 c 2.389413,4.37881 5.935068,8.12093 10.419922,10.70312 L 252.82422,585.14648 c 4.2764,2.46216 9.04277,3.69336 13.80859,3.69336 4.7658,0 9.53026,-1.23119 13.80664,-3.69336 L 506.80859,454.81445 c 4.29602,-2.47346 7.75639,-5.99784 10.14063,-10.13867 l -43.99805,-25.3164 a 27.244663,27.224501 0 0 1 -10.10351,10.23437 L 279.42773,535.41406 a 27.244663,27.224501 0 0 1 -27.24414,0 L 68.763672,429.59375 A 27.244663,27.224501 0 0 1 59.09375,419.32422 Z"
         transform="matrix(0.26458333,0,0,0.26458333,8.9958381,0)" />
      <path
         id="path993"
         style="display:inline;fill:#44ede4;fill-opacity:1;stroke:none;stroke-width:0.999999px;stroke-linecap:butt;stroke-linejoin:miter;stroke-opacity:1"
         d="m 266.63086,12.416016 c -0.21051,0 -0.42039,0.01668 -0.63086,0.02148 l -0.008,48.923828 a 27.244663,27.224501 0 0 1 13.43554,3.621094 L 462.84766,170.80273 a 27.244663,27.224501 0 0 1 13.62304,23.57618 v 211.63867 a 27.244663,27.224501 0 0 1 -3.50976,13.34765 l 43.99023,25.3125 c 2.36271,-4.10313 3.66602,-8.81283 3.66602,-13.71484 V 170.29297 c 0,-9.84866 -5.25587,-18.92722 -13.8086,-23.85156 L 280.43945,16.109375 c -4.27637,-2.462171 -9.04321,-3.693359 -13.80859,-3.693359 z"
         transform="matrix(0.26458333,0,0,0.26458333,8.9958381,0)" />
    </g>
  </g>
  <g
     inkscape:groupmode="layer"
     id="layer3"
     inkscape:label="logo-bg"
     style="display:none">
    <path
       sodipodi:type="star"
       style="display:inline;fill:none;fill-opacity:1;fill-rule:evenodd;stroke:#f5f5f5;stroke-width:6.18996;stroke-linecap:square;stroke-linejoin:miter;stroke-miterlimit:10;stroke-dasharray:none;stroke-dashoffset:0;stroke-opacity:1;paint-order:fill markers stroke"
       id="path995-3"
       inkscape:flatsided="true"
       sodipodi:sides="6"
       sodipodi:cx="351.95392"
       sodipodi:cy="199.97382"
       sodipodi:r1="154.64642"
       sodipodi:r2="83.255737"
       sodipodi:arg1="1.5707962"
       sodipodi:arg2="2.094395"
       inkscape:rounded="0"
       inkscape:randomized="0"
       transform="matrix(-0.51363624,0,0,-0.51222005,251.15612,181.85546)"
       inkscape:export-filename="C:\Users\Admin\Desktop\logo blue.png"
       inkscape:export-xdpi="96"
       inkscape:export-ydpi="96"
       inkscape:path-effect="#path-effect869"
       d="m 343.29368,349.62024 -116.60723,-67.3232 a 17.320508,17.320508 59.999993 0 1 -8.66025,-15 l -2e-5,-134.64642 a 17.320508,17.320508 119.99999 0 1 8.66025,-15 L 343.29365,50.327394 a 17.320508,17.320508 179.99999 0 1 17.3205,-3e-6 l 116.60724,67.323199 a 17.320508,17.320508 59.999993 0 1 8.66025,15 l 2e-5,134.64642 a 17.320508,17.320508 119.99999 0 1 -8.66025,15 l -116.60722,67.32323 a 17.320508,17.320508 179.99999 0 1 -17.32051,0 z" />
    <path
       sodipodi:type="star"
       style="display:inline;fill:#f5f5f5;fill-opacity:1;fill-rule:evenodd;stroke:#f5f5f5;stroke-width:7.63167;stroke-linecap:square;stroke-linejoin:miter;stroke-miterlimit:10;stroke-dasharray:none;stroke-dashoffset:0;stroke-opacity:1;paint-order:fill markers stroke"
       id="path1001-0"
       inkscape:flatsided="true"
       sodipodi:sides="6"
       sodipodi:cx="351.95392"
       sodipodi:cy="199.97382"
       sodipodi:r1="154.64642"
       sodipodi:r2="83.255737"
       sodipodi:arg1="1.5707962"
       sodipodi:arg2="2.094395"
       inkscape:rounded="0"
       inkscape:randomized="0"
       transform="matrix(-0.416182,0,0,-0.41587402,216.87862,162.58466)"
       inkscape:export-filename="C:\Users\Admin\Desktop\logo blue.png"
       inkscape:export-xdpi="96"
       inkscape:export-ydpi="96"
       inkscape:path-effect="#path-effect994"
       d="m 343.29368,349.62024 -116.60723,-67.3232 a 17.320508,17.320508 59.999993 0 1 -8.66025,-15 l -2e-5,-134.64642 a 17.320508,17.320508 119.99999 0 1 8.66025,-15 L 343.29365,50.327394 a 17.320508,17.320508 179.99999 0 1 17.3205,-3e-6 l 116.60724,67.323199 a 17.320508,17.320508 59.999993 0 1 8.66025,15 l 2e-5,134.64642 a 17.320508,17.320508 119.99999 0 1 -8.66025,15 l -116.60722,67.32323 a 17.320508,17.320508 179.99999 0 1 -17.32051,0 z" />
  </g>
  <g
     inkscape:groupmode="layer"
     id="layer4"
     inkscape:label="logo-tree"
     style="display:inline">
    <g
       id="g14148"
       transform="translate(-8.5318867,-0.25189025)"
       inkscape:transform-center-x="-1.7459324"
       inkscape:transform-center-y="-5.6911418"
       style="display:inline">
      <path
         style="display:inline;fill:none;stroke:#2167ba;stroke-width:3.70417;stroke-linecap:butt;stroke-linejoin:miter;stroke-miterlimit:4;stroke-dasharray:none;stroke-opacity:1"
         d="m 78.985439,94.992095 -0.0387,-30.53176"
         id="path1007"
         inkscape:transform-center-x="-0.011448425"
         inkscape:transform-center-y="0.021385625"
         sodipodi:nodetypes="cc" />
      <path
         style="display:inline;fill:#2167ba;fill-opacity:1;stroke:none;stroke-width:2.11666;stroke-linecap:butt;stroke-linejoin:miter;stroke-miterlimit:4;stroke-dasharray:none;stroke-opacity:1"
         d="m 75.374539,85.645595 c 2.3711,-0.01724 4.87254,-0.03018 7.04129,-0.03018 0.10184,2.94846 1.06292,23.142725 2.23797,30.886245 0.31841,2.10117 1.20978,3.53864 0.73465,4.52959 -1.52232,0.52638 -12.99897,0.86703 -13.98763,-0.72983 1.5759,-11.22815 3.24956,-23.379015 3.97379,-34.658419 z"
         id="path1009"
         sodipodi:nodetypes="ccscccc"
         inkscape:transform-center-x="0.10379941"
         inkscape:transform-center-y="2.9905533" />
      <path
         style="display:inline;fill:none;stroke:#2167ba;stroke-width:3.175;stroke-linecap:butt;stroke-linejoin:miter;stroke-miterlimit:4;stroke-dasharray:none;stroke-opacity:1"
         d="m 80.721189,87.929612 c 0,-7.755635 2.72498,-5.512651 14.36212,-5.952955"
         id="path1011"
         sodipodi:nodetypes="cc"
         inkscape:transform-center-x="-2.4452498"
         inkscape:transform-center-y="-1.3304138" />
      <path
         style="display:inline;fill:none;stroke:#2167ba;stroke-width:3.175;stroke-linecap:butt;stroke-linejoin:miter;stroke-miterlimit:4;stroke-dasharray:none;stroke-opacity:1"
         d="m 76.947819,85.835509 c 0,-5.85136 -3.58779,-6.049076 -12.81992,-11.737031"
         id="path1013"
         sodipodi:nodetypes="cc"
         inkscape:transform-center-x="2.2575252"
         inkscape:transform-center-y="-2.7325638" />
      <ellipse
         style="display:inline;fill:none;fill-opacity:1;stroke:#2167ba;stroke-width:1.5875;stroke-linecap:round;stroke-linejoin:round;stroke-miterlimit:4;stroke-dasharray:none;stroke-opacity:1;paint-order:markers fill stroke"
         id="ellipse1015"
         cx="61.142426"
         cy="71.918274"
         rx="4.0238323"
         ry="3.9948416"
         inkscape:transform-center-x="4.1194115"
         inkscape:transform-center-y="-4.3462077" />
      <ellipse
         style="display:inline;fill:none;fill-opacity:1;stroke:#2167ba;stroke-width:1.5875;stroke-linecap:round;stroke-linejoin:round;stroke-miterlimit:4;stroke-dasharray:none;stroke-opacity:1;paint-order:markers fill stroke"
         id="ellipse1017"
         cy="60.860874"
         cx="79.001648"
         rx="4.0238323"
         ry="3.9948416"
         inkscape:transform-center-x="-0.021095218"
         inkscape:transform-center-y="-6.9115153" />
      <ellipse
         style="display:inline;fill:none;fill-opacity:1;stroke:#2167ba;stroke-width:1.5875;stroke-linecap:round;stroke-linejoin:round;stroke-miterlimit:4;stroke-dasharray:none;stroke-opacity:1;paint-order:markers fill stroke"
         id="ellipse1019"
         cy="81.905457"
         cx="98.685333"
         rx="4.0238323"
         ry="3.9948416"
         inkscape:transform-center-x="-4.5845775"
         inkscape:transform-center-y="-2.0291911" />
      <path
         id="path1021"
         style="display:inline;fill:none;fill-opacity:0;stroke:#2167ba;stroke-width:3.175;stroke-linecap:round;stroke-linejoin:round;stroke-miterlimit:4;stroke-dasharray:none;stroke-opacity:1;paint-order:markers fill stroke"
         d="m 87.443079,96.687455 c 3.49186,1.67957 5.54312,2.47832 11.14639,2.48626 11.218151,8e-5 20.312311,-8.49547 20.312401,-18.975384 -9e-5,-10.47987 -9.09425,-18.975423 -20.312401,-18.975337 -0.19971,0.0043 -0.40023,0.0086 -0.59992,0.01724 0.34808,-1.297806 0.52533,-2.630398 0.52854,-3.968248 -9e-5,-9.100814 -7.90091,-16.478343 -17.64712,-16.478474 v 0 c -7.34454,0.0029 -13.91922,4.253208 -16.5076,10.671338 -0.63279,-0.05603 -1.268,-0.08319 -1.90368,-0.08319 -11.21808,-8.7e-5 -20.31224,8.495423 -20.31233,18.975379 9e-5,10.479872 9.09425,18.887363 20.31233,19.591805 2.83965,0.0043 4.95827,-0.111206 7.0028,-0.779529"
         sodipodi:nodetypes="ccccccssccccc"
         inkscape:transform-center-x="-0.37417733"
         inkscape:transform-center-y="-4.7950588" />
    </g>
  </g>
  <g
     inkscape:groupmode="layer"
     id="layer5"
     inkscape:label="logo-name"
     style="display:inline">
    <text
       xml:space="preserve"
       style="font-style:normal;font-variant:normal;font-weight:bold;font-stretch:normal;font-size:42.3333px;line-height:1.1;font-family:'Space Mono';-inkscape-font-specification:'Space Mono Bold';text-align:start;text-anchor:start;display:inline;fill:#2167ba;fill-opacity:1;stroke-width:0.264583"
       x="177.36472"
       y="69.911423"
       id="text15987"
       transform="matrix(0.98264974,0,0,1.0176566,-8.9958381,0)"><tspan
         sodipodi:role="line"
         id="tspan15985"
         style="font-style:normal;font-variant:normal;font-weight:bold;font-stretch:normal;font-size:42.3333px;font-family:'Space Mono';-inkscape-font-specification:'Space Mono Bold';text-align:start;text-anchor:start;fill:#2167ba;fill-opacity:1;stroke-width:0.264583"
         x="177.36472"
         y="69.911423">Sola</tspan><tspan
         sodipodi:role="line"
         style="font-style:normal;font-variant:normal;font-weight:bold;font-stretch:normal;font-size:42.3333px;font-family:'Space Mono';-inkscape-font-specification:'Space Mono Bold';text-align:start;text-anchor:start;fill:#2167ba;fill-opacity:1;stroke-width:0.264583"
         x="177.36472"
         y="116.47806"
         id="tspan15989">Analytics</tspan></text>
  </g>
  <g
     inkscape:groupmode="layer"
     id="layer6"
     inkscape:label="guides"
     style="display:none">
    <path
       style="display:inline;fill:none;stroke:#000000;stroke-width:0.264583px;stroke-linecap:butt;stroke-linejoin:miter;stroke-opacity:1"
       d="M 79.37566,0.21186331 79.375682,158.63786"
       id="path13863"
       transform="translate(-8.9958381)" />
    <path
       style="display:inline;fill:none;stroke:#000000;stroke-width:0.264583px;stroke-linecap:butt;stroke-linejoin:miter;stroke-opacity:1"
       d="M 148.1658,39.818354 10.585541,119.03137 v 0"
       id="path12568"
       transform="translate(-8.9958381)" />
    <path
       style="display:inline;fill:none;stroke:#000000;stroke-width:0.264583px;stroke-linecap:butt;stroke-linejoin:miter;stroke-opacity:1"
       d="M 10.585531,39.81837 148.16581,119.03135"
       id="path14058"
       transform="translate(-8.9958381)" />
  </g>
</svg>
